<svg id="effect" height="512" viewBox="0 0 36 36" width="512" xmlns="http://www.w3.org/2000/svg"><path d="m3.442 23.883c6.061 3.333 8.497 8.761 11.417 10.367 2.921 1.606 9.978 3.299 17.366-10.137s.221-19.945-2.992-21.712c-15.042-8.27-36.525 15.58-25.791 21.482z" fill="#efefef"/><path d="m18 25.5s5.5-2.321 5.5-6.964c0-1.857 0-4.179 0-4.179l-5.5-1.857-5.5 1.857v4.179c0 4.643 5.5 6.964 5.5 6.964z" fill="#2fdf84"/><path d="m19 24.98c-.59.35-1 .52-1 .52s-5.5-2.32-5.5-6.96c0-2.79 0-4.18 0-4.18l5.5-1.86 1 .34-4.5 1.52v4.18c0 3.38 2.92 5.53 4.5 6.44z" fill="#00b871"/><path d="m27.5 12.25h-3.75v-1.5h3v-3h1.5v3.75c0 .414-.336.75-.75.75z"/><path d="m18 30.25c-6.755 0-12.25-5.495-12.25-12.25s5.495-12.25 12.25-12.25c3.879 0 7.563 1.868 9.855 4.997l-1.21.887c-2.01-2.745-5.242-4.384-8.645-4.384-5.928 0-10.75 4.822-10.75 10.75s4.822 10.75 10.75 10.75 10.75-4.822 10.75-10.75c0-.504-.03-.959-.092-1.394l1.484-.213c.073.505.108 1.031.108 1.606 0 6.756-5.495 12.251-12.25 12.251z"/><path d="m18 26.25c-.099 0-.198-.02-.292-.059-.244-.103-5.958-2.573-5.958-7.655v-4.179c0-.322.205-.607.51-.71l5.5-1.857c.155-.053.324-.053.479 0l5.5 1.857c.305.103.51.389.51.71v4.179c0 5.082-5.715 7.553-5.958 7.655-.093.039-.192.059-.291.059zm-4.75-11.354v3.64c0 3.516 3.673 5.601 4.749 6.136 1.075-.538 4.751-2.633 4.751-6.136v-3.64l-4.75-1.604z"/><path d="m17.5 21.25c-.014 0-.028 0-.042-.001-.213-.012-.411-.114-.544-.28l-2-2.5 1.171-.938 1.477 1.846 2.908-2.907 1.061 1.061-3.5 3.5c-.142.14-.333.219-.531.219z"/><g fill="#a4afc1"><path d="m7.783 3.305h2v1h-2z" transform="matrix(.707 -.707 .707 .707 -.118 7.325)"/><path d="m3.717 7.371h2v1h-2z" transform="matrix(.707 -.707 .707 .707 -4.184 5.641)"/><path d="m4.217 2.628h1v2h-1z" transform="matrix(.707 -.707 .707 .707 -1.184 4.398)"/></g></svg>