<svg height="512pt" viewBox="0 0 512 511" width="512pt" xmlns="http://www.w3.org/2000/svg"><path d="m512 256.273438c0-141.257813-114.613281-255.773438-256-255.773438s-256 114.515625-256 255.773438c0 141.261718 114.613281 255.773437 256 255.773437s256-114.511719 256-255.773437zm0 0" fill="#e5554e"/><path d="m256 .5c-6.730469 0-13.398438.261719-20 .773438 132.035156 10.195312 236 120.464843 236 255 0 134.535156-103.964844 244.804687-236 255 6.601562.511718 13.269531.773437 20 .773437 141.386719 0 256-114.511719 256-255.773437 0-141.257813-114.613281-255.773438-256-255.773438zm0 0" fill="#c62430"/><path d="m316.042969 256.773438 84.910156-84.832032c16.589844-16.578125 16.589844-43.46875 0-60.042968-16.570313-16.554688-43.421875-16.554688-59.988281 0l-84.964844 84.886718-84.964844-84.886718c-16.566406-16.554688-43.417968-16.554688-59.988281 0-16.589844 16.574218-16.589844 43.464843 0 60.042968l84.910156 84.832032-84.910156 84.835937c-16.589844 16.574219-16.589844 43.464844 0 60.042969 16.570313 16.554687 43.421875 16.554687 59.988281 0l84.964844-84.890625 84.964844 84.886719c16.566406 16.554687 43.417968 16.554687 59.988281 0 16.589844-16.574219 16.589844-43.464844 0-60.042969zm0 0" fill="#fff"/><path d="m316.042969 256.773438 84.9375-84.859376c16.578125-16.566406 16.578125-43.425781 0-59.992187-13.546875-13.53125-33.960938-16.003906-50.023438-7.425781 3.601563 1.921875 6.984375 4.394531 10.023438 7.425781 16.578125 16.566406 16.578125 43.425781 0 59.992187l-74.332031 74.261719c-5.855469 5.855469-5.855469 15.34375 0 21.195313l74.332031 74.265625c16.578125 16.5625 16.578125 43.421875 0 59.988281-3.039063 3.035156-6.421875 5.507812-10.023438 7.429688 16.0625 8.574218 36.476563 6.101562 50.023438-7.429688 16.578125-16.566406 16.578125-43.425781 0-59.988281zm0 0" fill="#e6e6e6"/></svg>