<svg id="Capa_1" enable-background="new 0 0 512 512" height="512" viewBox="0 0 512 512" width="512" xmlns="http://www.w3.org/2000/svg"><path d="m427.604 292.113v40.9h78.459c4.156 0 7.022-4.165 5.538-8.047l-11.752-30.735c-.521-1.364-.521-2.872 0-4.235l11.752-30.735c1.484-3.882-1.382-8.047-5.538-8.047h-78.459z" fill="#26a6fe"/><path d="m511.605 324.969c1.483 3.882-1.39 8.042-5.539 8.042h-21.674c4.16 0 7.022-4.16 5.539-8.042l-11.748-30.734c-.525-1.369-.525-2.873 0-4.242l11.748-30.734c1.483-3.882-1.38-8.041-5.539-8.041h21.674c4.149 0 7.022 4.16 5.539 8.041l-11.758 30.734c-.515 1.369-.515 2.873 0 4.242z" fill="#0593fc"/><path d="m84.738 292.113v40.9h-78.803c-4.156 0-7.022-4.165-5.538-8.047l11.752-30.735c.521-1.364.521-2.872 0-4.235l-11.752-30.736c-1.484-3.882 1.382-8.047 5.538-8.047h78.803z" fill="#26a6fe"/><path d="m73.526 96.423v375.203c0 10.695 8.67 19.365 19.365 19.365h326.216c10.695 0 19.365-8.67 19.365-19.365v-431.252c0-10.695-8.67-19.365-19.365-19.365h-265.624z" fill="#f3eae6"/><path d="m438.467 40.372v431.256c0 10.691-8.67 19.361-19.361 19.361h-23.969c10.701 0 19.371-8.67 19.371-19.361v-431.256c0-10.691-8.67-19.361-19.371-19.361h23.969c10.692 0 19.361 8.67 19.361 19.361z" fill="#e1d3ce"/><g fill="#cdbfba"><path d="m73.526 96.423h60.597c10.693 0 19.361-8.668 19.361-19.361v-56.053z"/><path d="m365.042 409.324h-218.087c-4.142 0-7.5-3.358-7.5-7.5s3.358-7.5 7.5-7.5h218.087c4.142 0 7.5 3.358 7.5 7.5s-3.358 7.5-7.5 7.5z"/><path d="m365.042 443.04h-218.087c-4.142 0-7.5-3.358-7.5-7.5s3.358-7.5 7.5-7.5h218.087c4.142 0 7.5 3.358 7.5 7.5s-3.358 7.5-7.5 7.5z"/><path d="m326.712 136.939h-141.424c-4.142 0-7.5-3.358-7.5-7.5s3.358-7.5 7.5-7.5h141.425c4.142 0 7.5 3.358 7.5 7.5s-3.359 7.5-7.501 7.5z"/><path d="m365.042 170.654h-218.087c-4.142 0-7.5-3.358-7.5-7.5s3.358-7.5 7.5-7.5h218.087c4.142 0 7.5 3.358 7.5 7.5s-3.358 7.5-7.5 7.5z"/></g><path d="m449.523 320.708h-129.541v-69.607h129.542c2.843 0 5.148 2.305 5.148 5.148v59.31c-.001 2.844-2.306 5.149-5.149 5.149z" fill="#8ac9fe"/><path d="m454.676 256.254v59.307c0 2.842-2.306 5.148-5.148 5.148h-21.924c2.852 0 5.148-2.306 5.148-5.148v-59.307c0-2.852-2.296-5.148-5.148-5.148h21.924c2.842-.001 5.148 2.296 5.148 5.148z" fill="#60b7ff"/><path d="m192.016 320.708h-129.542c-2.843 0-5.148-2.305-5.148-5.148v-59.31c0-2.843 2.305-5.148 5.148-5.148h129.542z" fill="#8ac9fe"/><circle cx="255.999" cy="285.905" fill="#fec165" r="84.959"/><path d="m263.571 240.873 9.053 18.344c.594 1.204 1.742 2.038 3.071 2.231l20.244 2.942c6.926 1.006 9.692 9.518 4.68 14.403l-14.649 14.279c-.961.937-1.4 2.287-1.173 3.61l3.458 20.162c1.183 6.898-6.057 12.159-12.252 8.902l-18.107-9.519c-1.188-.625-2.607-.625-3.796 0l-18.107 9.519c-6.195 3.257-13.435-2.004-12.252-8.902l3.458-20.162c.227-1.323-.212-2.673-1.173-3.61l-14.649-14.279c-5.012-4.885-2.246-13.397 4.68-14.403l20.244-2.942c1.328-.193 2.477-1.027 3.071-2.231l9.053-18.344c3.099-6.276 12.048-6.276 15.146 0z" fill="#fe9901"/><path d="m285.972 293.073c-.969.94-1.396 2.279-1.168 3.604l3.448 20.172c1.182 6.895-6.055 12.152-12.252 8.89l-18.107-9.516c-1.182-.627-2.607-.627-3.789 0l-18.107 9.516c-6.197 3.262-13.434-1.994-12.252-8.89l.784-4.601c.413-.128.826-.313 1.24-.527 2.663-1.402 5.326-2.803 7.989-4.205 4.012-2.112 8.028-4.269 12.284-5.858 3.479-1.298 7.203-1.807 10.898-1.946 3.99-.15 9.886 2.611 12.357-1.979.76-1.412.523-3.385.792-4.919 1.253-7.131 5.339-13.476 10.583-18.49 3.289-3.134 6.463-6.386 9.716-9.557.342-.342.655-.684.912-1.054l4.644.684c6.924.997 9.687 9.517 4.673 14.403z" fill="#fb8801"/></svg>