<?xml version="1.0" encoding="iso-8859-1"?>
<!-- Generator: Adobe Illustrator 19.0.0, SVG Export Plug-In . SVG Version: 6.00 Build 0)  -->
<svg version="1.1" id="Capa_1" xmlns="http://www.w3.org/2000/svg" xmlns:xlink="http://www.w3.org/1999/xlink" x="0px" y="0px"
	 viewBox="0 0 467.98 467.98" style="enable-background:new 0 0 467.98 467.98;" xml:space="preserve">
<path style="fill:#FCD462;" d="M254.283,7.611l21.854,17.483c6.868,5.62,16.234,8.117,25.6,6.868l28.098-4.371
	c14.985-2.498,29.971,6.244,35.59,20.605l9.99,26.224c3.122,8.741,9.99,15.61,18.732,18.732l26.224,9.99
	c14.361,5.62,23.102,19.98,20.605,35.59l-4.371,28.098c-1.249,9.366,1.249,18.107,6.868,25.6l17.483,21.854
	c9.366,11.863,9.366,28.722,0,40.585l-17.483,21.854c-5.62,6.868-8.117,16.234-6.868,25.6l4.371,28.098
	c2.498,14.985-6.244,29.971-20.605,35.59l-26.224,9.99c-8.741,3.122-15.61,9.99-18.732,18.732l-10.615,25.6
	c-5.62,14.361-19.98,23.102-35.59,20.605l-28.098-4.371c-9.366-1.249-18.107,1.249-25.6,6.868l-21.854,17.483
	c-11.863,9.366-28.722,9.366-40.585,0l-21.854-17.483c-6.868-5.62-16.234-8.117-25.6-6.868l-28.098,4.371
	c-14.985,2.498-29.971-6.244-35.59-20.605l-9.99-26.224c-3.122-8.741-9.99-15.61-18.732-18.732l-25.6-9.99
	c-14.361-5.62-23.102-19.98-20.605-35.59l4.371-28.098c1.249-9.366-1.249-18.107-6.868-25.6L7.024,254.245
	c-9.366-11.863-9.366-28.722,0-40.585l17.483-21.854c5.62-6.868,8.117-16.234,6.868-25.6l-4.371-28.098
	c-2.498-14.985,6.244-29.971,20.605-35.59l26.224-9.99c8.741-3.122,15.61-9.99,18.732-18.732l9.99-26.224
	c5.62-14.361,19.98-23.102,35.59-20.605l28.098,4.371c9.366,1.249,18.107-1.249,25.6-6.868l21.854-17.483
	C224.937-2.38,242.42-2.38,254.283,7.611z"/>
<path style="fill:#27A2DB;" d="M408.507,249.25c-13.737,16.859-19.356,38.712-16.234,59.941l3.122,18.732l-18.107,6.868
	c-19.98,7.493-36.215,23.727-43.707,43.707l-6.244,18.107l-18.732-3.122c-3.746-0.624-8.117-0.624-11.863-0.624
	c-17.483,0-34.341,6.244-48.078,16.859l-14.985,11.863l-14.985-12.488c-13.737-11.239-30.595-16.859-48.078-16.859
	c-3.746,0-8.117,0-11.863,0.624l-18.732,3.746l-6.868-18.107c-7.493-19.98-23.727-36.215-43.707-43.707l-18.107-6.868l3.122-18.732
	c3.122-21.229-2.498-43.083-16.234-59.941l-11.863-14.985l11.863-14.985c13.737-16.859,19.356-38.712,16.234-59.941l-3.122-18.732
	l18.107-6.868c19.98-7.493,36.215-23.727,43.707-43.707l6.868-18.107l18.732,3.122c3.746,0.624,8.117,0.624,11.863,0.624
	c17.483,0,34.341-6.244,48.078-16.859l14.985-11.863l14.985,11.863c13.737,11.239,30.595,16.859,48.078,16.859
	c3.746,0,8.117,0,11.863-0.624l18.732-3.122l6.868,18.107c7.493,19.98,23.727,36.215,43.707,43.707l18.107,6.868l-3.122,18.732
	c-3.122,21.229,2.498,43.083,16.234,59.941l11.863,14.985L408.507,249.25z"/>
<path style="fill:#EBF0F3;" d="M209.327,149.972c7.493,8.117,11.239,18.107,11.239,29.971s-3.746,21.854-11.863,29.971
	c-7.493,8.117-17.483,12.488-28.722,12.488s-21.229-4.371-28.722-12.488c-7.493-8.117-11.239-18.107-11.239-29.971
	s3.746-21.854,11.863-30.595c7.493-8.117,17.483-12.488,28.722-12.488C191.844,137.484,201.834,141.23,209.327,149.972z
	 M318.595,141.855L181.229,329.172h-34.341l137.366-187.317H318.595z M191.22,193.679c3.122-3.746,4.371-8.117,4.371-13.737
	c0-5.62-1.249-9.99-4.371-13.737s-6.868-5.62-11.239-5.62c-4.371,0-8.117,1.873-10.615,5.62c-3.122,3.746-4.371,8.117-4.371,13.737
	s1.249,9.99,4.371,13.737c3.122,3.746,6.868,5.62,11.239,5.62C184.976,199.298,188.722,197.425,191.22,193.679z M316.098,257.991
	c7.493,8.117,11.239,18.107,11.239,29.971s-3.746,21.854-11.863,30.595c-7.493,8.117-17.483,12.488-28.722,12.488
	c-11.239,0-21.229-4.371-28.722-12.488c-7.493-8.117-11.239-18.107-11.239-29.971c0-11.863,3.746-21.854,11.863-30.595
	c7.493-8.117,17.483-12.488,28.722-12.488S307.98,249.874,316.098,257.991z M298.615,302.947c3.122-3.746,4.371-8.117,4.371-13.737
	c0-5.62-1.249-9.99-4.371-13.737c-3.122-3.746-6.868-5.62-11.239-5.62s-8.117,1.873-10.615,5.62
	c-3.122,3.746-4.371,8.117-4.371,13.737c0,5.62,1.249,9.99,4.371,13.737s6.868,5.62,11.239,5.62S295.493,306.694,298.615,302.947z"
	/>
<g>
</g>
<g>
</g>
<g>
</g>
<g>
</g>
<g>
</g>
<g>
</g>
<g>
</g>
<g>
</g>
<g>
</g>
<g>
</g>
<g>
</g>
<g>
</g>
<g>
</g>
<g>
</g>
<g>
</g>
</svg>
