<svg id="_x33_0" enable-background="new 0 0 64 64" height="512" viewBox="0 0 64 64" width="512" xmlns="http://www.w3.org/2000/svg"><g><g><g><path d="m16.25 33.38 1.75 2.62-1.85 5.56c-.89-1.31-1.65-2.71-2.27-4.16-.33-.79-.62-1.59-.86-2.41z" fill="#fcd770"/></g><g><path d="m21.75 33.38 3.23 1.61c-.7 2.33-1.76 4.55-3.13 6.57l-1.85-5.56z" fill="#fcd770"/></g><g><path d="m55.69 39h-.01c-.97-1.55-2.22-2.9-3.68-4-2-1.5-4.4-2.52-7.01-2.87-.65-.09-1.31-.13-1.99-.13-2.87 0-5.54.8-7.82 2.2-1.97 1.21-3.64 2.85-4.86 4.8h-.01c-1.46 2.31-2.31 5.06-2.31 8s.85 5.69 2.32 8c2.65 4.21 7.34 7 12.68 7s10.03-2.79 12.68-7h.01c1.46-2.31 2.31-5.06 2.31-8s-.85-5.69-2.31-8z" fill="#69d6f4"/></g><g><path d="m8 55h-6v-16.94c0-1.58.4-3.11 1.12-4.46s1.78-2.53 3.09-3.41c1.18-.78 2.52-1.29 3.91-1.49l1.88-.27c.03 2.24.38 4.45 1.02 6.56.24.82.53 1.62.86 2.41.62 1.45 1.38 2.85 2.27 4.16.84 1.23 1.79 2.38 2.85 3.44 1.06-1.06 2.01-2.21 2.85-3.44 1.37-2.02 2.43-4.24 3.13-6.57.64-2.11.99-4.32 1.02-6.56l1.88.27c1.39.2 2.73.71 3.91 1.49 1.5 1.01 2.67 2.4 3.39 4.01-1.97 1.21-3.64 2.85-4.86 4.8h-.01c-1.46 2.31-2.31 5.06-2.31 8s.85 5.69 2.32 8z" fill="#e6e9ed"/></g><g><path d="m19 32-2.75 1.38-3.23 1.61c-.64-2.11-.99-4.32-1.02-6.56l3-.43z" fill="#fcd770"/></g><g><path d="m23 28 3 .43c-.03 2.24-.38 4.45-1.02 6.56l-3.23-1.61-2.75-1.38z" fill="#fcd770"/></g><g><path d="m20 36 1.85 5.56c-.84 1.23-1.79 2.38-2.85 3.44-1.06-1.06-2.01-2.21-2.85-3.44l1.85-5.56z" fill="#b4dd7f"/></g><g><path d="m19 32 2.75 1.38-1.75 2.62h-2l-1.75-2.62z" fill="#b4dd7f"/></g><g><path d="m9 13.76s-.25-.69-.5-1.63c-.25-.93-.5-2.13-.5-3.13 0-.83.34-1.58.88-2.12s1.29-.88 2.12-.88l.78-1.04c.7-.93 1.6-1.67 2.61-2.18 1.01-.5 2.15-.78 3.31-.78.86 0 1.71.15 2.52.45l6.58 2.39c.96.35 1.76.98 2.32 1.78s.88 1.76.88 2.78c0 .4-.05.79-.15 1.18l-.85 3.19c-.53-.48-1.23-.77-2-.77h-1c-2.5 0-5.25-1-7.38-2-2.12-1-3.62-2-3.62-2-1.41.95-2.41 2.38-2.81 4h-1.19c-.77 0-1.46.29-1.99.77z" fill="#656d78"/></g><g><path d="m22.07 24.29.93 3.71-4 4-4-4 .93-3.71c.92.46 1.96.71 3.07.71s2.15-.25 3.07-.71z" fill="#f0d0b4"/></g><g><path d="m29.12 18.12c-.54.54-1.29.88-2.12.88h-1.07-.01c.06-.33.08-.66.08-1v-5h1c.77 0 1.47.29 2 .77.62.54 1 1.34 1 2.23 0 .83-.34 1.58-.88 2.12z" fill="#f0d0b4"/></g><g><path d="m26 13v5c0 .34-.02.67-.08 1-.32 2.34-1.81 4.3-3.85 5.29-.92.46-1.96.71-3.07.71s-2.15-.25-3.07-.71c-2.04-.99-3.53-2.95-3.85-5.29-.06-.33-.08-.66-.08-1v-3.39c0-.55.07-1.09.19-1.61.4-1.62 1.4-3.05 2.81-4 0 0 1.5 1 3.62 2 2.13 1 4.88 2 7.38 2z" fill="#f0d0b4"/></g><g><path d="m11 19c-.83 0-1.58-.34-2.12-.88s-.88-1.29-.88-2.12c0-.89.39-1.7 1.01-2.23.53-.48 1.22-.77 1.99-.77h1.19c-.12.52-.19 1.06-.19 1.61v3.39c0 .34.02.67.08 1h-.01z" fill="#f0d0b4"/></g><g><path d="m52 35c-2-1.5-4.4-2.52-7.01-2.87-1.85-1.81-2.99-4.34-2.99-7.13 0-5.52 4.48-10 10-10s10 4.48 10 10-4.48 10-10 10z" fill="#fcd770"/></g></g><g><path d="m53 20.184v-2.184h-2v2h-2v3c0 1.654 1.346 3 3 3 .552 0 1 .449 1 1v1h-1c-.552 0-1-.449-1-1v-1h-2v1c0 1.302.839 2.402 2 2.816v2.184h2v-2h2v-3c0-1.654-1.346-3-3-3-.552 0-1-.449-1-1v-1h1c.552 0 1 .449 1 1v1h2v-1c0-1.302-.839-2.402-2-2.816z"/><path d="m63 25c0-6.065-4.935-11-11-11s-11 4.935-11 11c0 2.171.629 4.239 1.791 6.011-2.6.034-5.051.69-7.213 1.828-.802-1.388-1.895-2.585-3.237-3.479-1.291-.861-2.786-1.432-4.324-1.652l-4.209-.602-.582-2.325c1.715-1.073 2.991-2.773 3.511-4.78h.263c2.206 0 4-1.794 4-4 0-.946-.344-1.806-.896-2.491l.72-2.685c.117-.466.176-.944.176-1.423 0-2.454-1.55-4.666-3.855-5.504l-6.578-2.392c-.924-.336-1.889-.506-2.87-.506-2.629 0-5.14 1.255-6.716 3.358l-.508.676c-1.956.258-3.473 1.939-3.473 3.966 0 1.609.565 3.587.871 4.538-.537.681-.871 1.529-.871 2.462 0 2.206 1.794 4 4 4h.263c.519 2.007 1.796 3.707 3.511 4.78l-.582 2.325-4.209.602c-1.538.22-3.033.792-4.324 1.652-2.917 1.944-4.659 5.199-4.659 8.705v17.936h28.782c2.884 4.222 7.732 7 13.218 7 8.822 0 16-7.178 16-16 0-4.388-1.777-8.366-4.647-11.26 4.937-1.081 8.647-5.483 8.647-10.74zm-23.858 29c-.583-1.701-1.006-3.701-1.105-6h9.927c-.1 2.295-.526 4.297-1.112 6zm6.901 2c-1.068 2.271-2.309 3.809-3.045 4.598-.739-.788-1.983-2.322-3.051-4.598zm-6.086-18c1.068-2.27 2.309-3.808 3.045-4.598.739.787 1.983 2.322 3.051 4.598zm6.901 2c.583 1.701 1.006 3.701 1.105 6h-9.927c.1-2.295.526-4.297 1.113-6zm-9.109-2h-5.457c2.06-2.448 4.942-4.173 8.217-4.765-.874 1.117-1.901 2.703-2.76 4.765zm-6.855 2h6.13c-.532 1.737-.899 3.741-.987 6h-6.986c.154-2.175.804-4.211 1.843-6zm5.142 8c.089 2.259.455 4.263.987 6h-6.13c-1.039-1.789-1.689-3.825-1.844-6zm13.928 0h6.986c-.155 2.175-.805 4.211-1.844 6h-6.13c.532-1.737.899-3.741.988-6zm0-2c-.089-2.259-.455-4.263-.987-6h6.13c1.039 1.789 1.689 3.825 1.844 6zm-1.713-8c-.859-2.062-1.886-3.648-2.76-4.765 3.275.592 6.156 2.317 8.217 4.765zm-29.251-4.882 1.289.645-.824 1.237h-.929l-.825-1.237zm-3.092 1.546.989 1.484-1.014 3.043c-.656-1.182-1.204-2.416-1.639-3.694zm2.813 2.336h.559l1.459 4.376c-.538.753-1.106 1.487-1.739 2.178-.633-.691-1.201-1.425-1.739-2.178zm3.397 2.191-1.014-3.043.989-1.484 1.665.832c-.436 1.279-.984 2.513-1.64 3.695zm2.828-9.903c-.075 1.449-.283 2.871-.621 4.257l-3.638-1.819 2.665-2.665zm2.054-11.288v-4c1.103 0 2 .897 2 2s-.897 2-2 2zm-18-2c0-1.103.897-2 2-2h.037c-.015.201-.037.401-.037.605v3.395c-1.103 0-2-.897-2-2zm2.46-4h-.46c-.503 0-.979.104-1.423.274-.264-.92-.577-2.225-.577-3.274 0-1.103.897-2 2-2h.5l1.081-1.442c1.201-1.602 3.114-2.558 5.116-2.558.747 0 1.482.129 2.186.385l6.578 2.392c1.518.552 2.539 2.009 2.539 3.625 0 .315-.039.629-.111.919l-.519 1.936c-.429-.158-.887-.257-1.37-.257h-1c-4.633 0-10.388-3.794-10.445-3.833l-.556-.369-.554.37c-1.405.937-2.433 2.289-2.985 3.832zm1.54 6v-3.395c0-1.709.755-3.309 2.047-4.393 1.563.955 5.874 3.378 9.953 3.741v4.047c0 3.309-2.691 6-6 6s-6-2.691-6-6zm6 8c.828 0 1.628-.127 2.379-.361l.513 2.055-2.892 2.892-2.892-2.892.513-2.055c.751.234 1.551.361 2.379.361zm-4.353 3.061 2.665 2.665-3.638 1.819c-.337-1.386-.546-2.808-.621-4.257zm-5.647 24.939v-15h-2v15h-4v-15.936c0-2.836 1.409-5.469 3.769-7.042 1.044-.696 2.254-1.159 3.498-1.337l.778-.111c.357 6.096 2.905 11.788 7.248 16.132l.707.708.707-.707c4.343-4.344 6.891-10.036 7.248-16.132l.778.111c1.244.178 2.454.641 3.498 1.337 1.098.732 1.989 1.715 2.64 2.855-4.147 2.894-6.871 7.693-6.871 13.122 0 2.512.598 4.882 1.635 7zm23.292 2h5.457c.859 2.062 1.886 3.648 2.76 4.765-3.275-.592-6.157-2.317-8.217-4.765zm13.199 4.765c.874-1.117 1.901-2.703 2.76-4.765h5.457c-2.06 2.448-4.942 4.173-8.217 4.765zm6.782-26.779c-1.972-1.41-4.274-2.375-6.769-2.77-1.612-1.683-2.504-3.876-2.504-6.216 0-4.962 4.037-9 9-9s9 4.038 9 9c0 4.87-3.891 8.84-8.727 8.986z"/></g></g></svg>