<svg height="480pt" viewBox="0 0 480 480" width="480pt" xmlns="http://www.w3.org/2000/svg"><path d="m472 72v384c-.027344 8.824219-7.175781 15.972656-16 16h-432c-8.824219-.027344-15.972656-7.175781-16-16v-384c.027344-8.824219 7.175781-15.972656 16-16h32v368c.027344 8.824219 7.175781 15.972656 16 16h80c8.824219-.027344 15.972656-7.175781 16-16v-368h288c8.824219.027344 15.972656 7.175781 16 16zm-32 96v-80h-240v80zm-16 72c.011719-11.449219-8.070312-21.3125-19.296875-23.554688-11.230469-2.246093-22.480469 3.757813-26.871094 14.332032-4.386719 10.574218-.695312 22.78125 8.820313 29.148437 9.515625 6.367188 22.207031 5.125 30.308594-2.964843 4.507812-4.492188 7.039062-10.597657 7.039062-16.960938zm0 80c.011719-11.449219-8.070312-21.3125-19.296875-23.554688-11.230469-2.246093-22.480469 3.757813-26.871094 14.332032-4.386719 10.574218-.695312 22.78125 8.820313 29.148437 9.515625 6.367188 22.207031 5.125 30.308594-2.964843 4.507812-4.492188 7.039062-10.597657 7.039062-16.960938zm0 80c.011719-11.449219-8.070312-21.3125-19.296875-23.554688-11.230469-2.246093-22.480469 3.757813-26.871094 14.332032-4.386719 10.574218-.695312 22.78125 8.820313 29.148437 9.515625 6.367188 22.207031 5.125 30.308594-2.964843 4.507812-4.492188 7.039062-10.597657 7.039062-16.960938zm-80-160c.011719-11.449219-8.070312-21.3125-19.296875-23.554688-11.230469-2.246093-22.480469 3.757813-26.871094 14.332032-4.386719 10.574218-.695312 22.78125 8.820313 29.148437 9.515625 6.367188 22.207031 5.125 30.308594-2.964843 4.507812-4.492188 7.039062-10.597657 7.039062-16.960938zm0 80c.011719-11.449219-8.070312-21.3125-19.296875-23.554688-11.230469-2.246093-22.480469 3.757813-26.871094 14.332032-4.386719 10.574218-.695312 22.78125 8.820313 29.148437 9.515625 6.367188 22.207031 5.125 30.308594-2.964843 4.507812-4.492188 7.039062-10.597657 7.039062-16.960938zm0 80c.011719-11.449219-8.070312-21.3125-19.296875-23.554688-11.230469-2.246093-22.480469 3.757813-26.871094 14.332032-4.386719 10.574218-.695312 22.78125 8.820313 29.148437 9.515625 6.367188 22.207031 5.125 30.308594-2.964843 4.507812-4.492188 7.039062-10.597657 7.039062-16.960938zm-80-160c.011719-11.449219-8.070312-21.3125-19.296875-23.554688-11.230469-2.246093-22.480469 3.757813-26.871094 14.332032-4.386719 10.574218-.695312 22.78125 8.820313 29.148437 9.515625 6.367188 22.207031 5.125 30.308594-2.964843 4.507812-4.492188 7.039062-10.597657 7.039062-16.960938zm0 80c.011719-11.449219-8.070312-21.3125-19.296875-23.554688-11.230469-2.246093-22.480469 3.757813-26.871094 14.332032-4.386719 10.574218-.695312 22.78125 8.820313 29.148437 9.515625 6.367188 22.207031 5.125 30.308594-2.964843 4.507812-4.492188 7.039062-10.597657 7.039062-16.960938zm0 80c.011719-11.449219-8.070312-21.3125-19.296875-23.554688-11.230469-2.246093-22.480469 3.757813-26.871094 14.332032-4.386719 10.574218-.695312 22.78125 8.820313 29.148437 9.515625 6.367188 22.207031 5.125 30.308594-2.964843 4.507812-4.492188 7.039062-10.597657 7.039062-16.960938zm0 0" fill="#78b9eb"/><g fill="#1a6fb0"><path d="m456 48h-280v-24c0-13.253906-10.746094-24-24-24h-80c-13.253906 0-24 10.746094-24 24v24h-24c-13.253906 0-24 10.746094-24 24v384c0 13.253906 10.746094 24 24 24h432c13.253906 0 24-10.746094 24-24v-384c0-13.253906-10.746094-24-24-24zm-392-24c0-4.417969 3.582031-8 8-8h80c4.417969 0 8 3.582031 8 8v400c0 4.417969-3.582031 8-8 8h-80c-4.417969 0-8-3.582031-8-8zm400 432c0 4.417969-3.582031 8-8 8h-432c-4.417969 0-8-3.582031-8-8v-384c0-4.417969 3.582031-8 8-8h24v360c0 13.253906 10.746094 24 24 24h80c13.253906 0 24-10.746094 24-24v-360h280c4.417969 0 8 3.582031 8 8zm0 0"/><path d="m440 80h-240c-4.417969 0-8 3.582031-8 8v80c0 4.417969 3.582031 8 8 8h240c4.417969 0 8-3.582031 8-8v-80c0-4.417969-3.582031-8-8-8zm-8 80h-224v-64h224zm0 0"/><path d="m240 208c-17.671875 0-32 14.328125-32 32s14.328125 32 32 32 32-14.328125 32-32-14.328125-32-32-32zm0 48c-8.835938 0-16-7.164062-16-16s7.164062-16 16-16 16 7.164062 16 16-7.164062 16-16 16zm0 0"/><path d="m320 208c-17.671875 0-32 14.328125-32 32s14.328125 32 32 32 32-14.328125 32-32-14.328125-32-32-32zm0 48c-8.835938 0-16-7.164062-16-16s7.164062-16 16-16 16 7.164062 16 16-7.164062 16-16 16zm0 0"/><path d="m400 208c-17.671875 0-32 14.328125-32 32s14.328125 32 32 32 32-14.328125 32-32-14.328125-32-32-32zm0 48c-8.835938 0-16-7.164062-16-16s7.164062-16 16-16 16 7.164062 16 16-7.164062 16-16 16zm0 0"/><path d="m240 288c-17.671875 0-32 14.328125-32 32s14.328125 32 32 32 32-14.328125 32-32-14.328125-32-32-32zm0 48c-8.835938 0-16-7.164062-16-16s7.164062-16 16-16 16 7.164062 16 16-7.164062 16-16 16zm0 0"/><path d="m320 288c-17.671875 0-32 14.328125-32 32s14.328125 32 32 32 32-14.328125 32-32-14.328125-32-32-32zm0 48c-8.835938 0-16-7.164062-16-16s7.164062-16 16-16 16 7.164062 16 16-7.164062 16-16 16zm0 0"/><path d="m400 288c-17.671875 0-32 14.328125-32 32s14.328125 32 32 32 32-14.328125 32-32-14.328125-32-32-32zm0 48c-8.835938 0-16-7.164062-16-16s7.164062-16 16-16 16 7.164062 16 16-7.164062 16-16 16zm0 0"/><path d="m240 368c-17.671875 0-32 14.328125-32 32s14.328125 32 32 32 32-14.328125 32-32-14.328125-32-32-32zm0 48c-8.835938 0-16-7.164062-16-16s7.164062-16 16-16 16 7.164062 16 16-7.164062 16-16 16zm0 0"/><path d="m320 368c-17.671875 0-32 14.328125-32 32s14.328125 32 32 32 32-14.328125 32-32-14.328125-32-32-32zm0 48c-8.835938 0-16-7.164062-16-16s7.164062-16 16-16 16 7.164062 16 16-7.164062 16-16 16zm0 0"/><path d="m400 368c-17.671875 0-32 14.328125-32 32s14.328125 32 32 32 32-14.328125 32-32-14.328125-32-32-32zm0 48c-8.835938 0-16-7.164062-16-16s7.164062-16 16-16 16 7.164062 16 16-7.164062 16-16 16zm0 0"/></g></svg>