<svg height="512pt" viewBox="0 0 512 512" width="512pt" xmlns="http://www.w3.org/2000/svg" xmlns:xlink="http://www.w3.org/1999/xlink"><linearGradient id="a" gradientTransform="matrix(1 0 0 -1 0 -22278)" gradientUnits="userSpaceOnUse" x1="0" x2="512" y1="-22534" y2="-22534"><stop offset="0" stop-color="#00f38d"/><stop offset="1" stop-color="#009eff"/></linearGradient><path d="m512 256c0 141.386719-114.613281 256-256 256s-256-114.613281-256-256 114.613281-256 256-256 256 114.613281 256 256zm0 0" fill="url(#a)"/><path d="m397.1875 108.8125h-282.375c-24.160156 0-43.8125 19.652344-43.8125 43.8125v172.882812c0 24.15625 19.652344 43.8125 43.8125 43.8125h126.1875v27.625h-74.914062v30h179.828124v-30h-74.914062v-27.625h126.1875c24.160156 0 43.8125-19.65625 43.8125-43.8125v-172.882812c0-24.160156-19.652344-43.8125-43.8125-43.8125zm13.8125 216.695312c0 7.613282-6.195312 13.8125-13.8125 13.8125h-282.375c-7.617188 0-13.8125-6.199218-13.8125-13.8125v-172.882812c0-7.617188 6.195312-13.8125 13.8125-13.8125h282.375c7.617188 0 13.8125 6.195312 13.8125 13.8125zm0 0" fill="#fff"/></svg>