<svg height="512pt" viewBox="0 0 512 512" width="512pt" xmlns="http://www.w3.org/2000/svg" xmlns:xlink="http://www.w3.org/1999/xlink"><linearGradient id="a" gradientTransform="matrix(1 0 0 -1 0 -14446)" gradientUnits="userSpaceOnUse" x1="0" x2="512" y1="-14702" y2="-14702"><stop offset="0" stop-color="#00f38d"/><stop offset="1" stop-color="#009eff"/></linearGradient><path d="m512 256c0 141.386719-114.613281 256-256 256s-256-114.613281-256-256 114.613281-256 256-256 256 114.613281 256 256zm0 0" fill="url(#a)"/><g fill="#fff"><path d="m318.105469 176.320312c21.332031-4.101562 42.714843-12.355468 58.464843-27.984374 15.640626-15.523438 23.570313-35.972657 23.570313-60.785157h-30c0 16.753907-4.808594 29.671875-14.703125 39.492188-12.363281 12.265625-33.507812 19.917969-60.582031 22.183593l24.039062-43.628906v-20.148437h-125.433593v20.148437l29.230468 53.042969c-36.378906 20.710937-133.691406 84.257813-133.691406 171.363281 0 34.859375 10.710938 58.859375 32.738281 73.367188 21.128907 13.914062 49.6875 16.421875 74.835938 17.039062l116.824219.039063.164062-.003907c25.625-.546874 54.742188-2.949218 76.363281-16.628906 22.929688-14.503906 34.074219-38.648437 34.074219-73.8125 0-69.480468-62.179688-123.964844-105.894531-153.683594zm-38.890625-60.871093-19 34.480469h-8.070313l-19-34.480469zm33.871094 275-115.957032-.035157c-59.871094-1.496093-78.128906-15.625-78.128906-60.410156 0-78.8125 107.847656-139.734375 127.292969-150.074218h19.792969c19.503906 10.289062 127.914062 71.070312 127.914062 150.074218 0 44.960938-18.90625 59.097656-80.914062 60.445313zm0 0"/><path d="m263.257812 273.226562-.167968-.085937c-12.484375-6.484375-14.480469-9.28125-14.480469-14.933594 0-3.675781 3.464844-6.78125 7.566406-6.78125 3.722657 0 7.570313 2.378907 7.570313 6.359375v3.222656h30v-3.222656c0-14.890625-9.300782-27.710937-22.570313-33.328125v-21.652343h-30v21.6875c-13.269531 5.683593-22.566406 18.652343-22.566406 33.714843 0 25.636719 19.941406 35.992188 30.65625 41.554688l.167969.089843c12.820312 6.65625 18.179687 10.128907 18.179687 14.402344 0 6.195313-5.34375 11.632813-11.4375 11.632813-6.089843 0-11.4375-5.308594-11.4375-11.359375v-5.15625h-30v5.15625c0 17.527344 10.984375 32.53125 26.4375 38.542968v21.59375h30v-21.726562c15.304688-6.183594 26.4375-21.402344 26.4375-38.683594 0-23.191406-19.855469-33.5-34.355469-41.027344zm0 0"/></g></svg>