<svg height="512pt" viewBox="0 0 512 512" width="512pt" xmlns="http://www.w3.org/2000/svg" xmlns:xlink="http://www.w3.org/1999/xlink"><linearGradient id="a" gradientUnits="userSpaceOnUse" x1="0" x2="512" y1="256" y2="256"><stop offset="0" stop-color="#00f38d"/><stop offset="1" stop-color="#009eff"/></linearGradient><path d="m512 256c0 141.386719-114.613281 256-256 256s-256-114.613281-256-256 114.613281-256 256-256 256 114.613281 256 256zm0 0" fill="url(#a)"/><g fill="#fff"><path d="m356.160156 165.441406c0-55.230468-44.929687-100.164062-100.160156-100.164062s-100.160156 44.933594-100.160156 100.164062c0 33.066406 16.109375 62.4375 40.886718 80.6875-65.734374 24.203125-112.742187 87.460938-112.742187 161.492188h30c0-78.308594 63.707031-142.019532 142.015625-142.019532 55.230469 0 100.160156-44.929687 100.160156-100.160156zm-170.320312 0c0-38.6875 31.472656-70.164062 70.160156-70.164062s70.160156 31.476562 70.160156 70.164062-31.472656 70.160156-70.160156 70.160156-70.160156-31.472656-70.160156-70.160156zm0 0"/><path d="m346.484375 257.558594v30h31.820313l-51.800782 51.800781-38.285156-38.117187-83.597656 86.648437 21.589844 20.832031 62.4375-64.714844 37.902343 37.730469 71.46875-71.46875v28.15625h30v-80.867187zm0 0"/></g></svg>