<?xml version="1.0"?>
<svg xmlns="http://www.w3.org/2000/svg" xmlns:xlink="http://www.w3.org/1999/xlink" xmlns:svgjs="http://svgjs.com/svgjs" version="1.1" width="512" height="512" x="0" y="0" viewBox="0 0 512 512" style="enable-background:new 0 0 512 512" xml:space="preserve" class=""><g><path xmlns="http://www.w3.org/2000/svg" d="m48 232h88v40h-88z" fill="#ffffff" data-original="#57a4ff" style="" class=""/><path xmlns="http://www.w3.org/2000/svg" d="m16 152h416v48h-416z" fill="#ffffff" data-original="#57a4ff" style="" class=""/><circle xmlns="http://www.w3.org/2000/svg" cx="424" cy="368" fill="#ffffff" r="72" data-original="#57a4ff" style="" class=""/><g xmlns="http://www.w3.org/2000/svg" fill="#004fac"><path d="m440 289.61v-145.61a40.045 40.045 0 0 0 -40-40h-352a40.045 40.045 0 0 0 -40 40v192a40.045 40.045 0 0 0 40 40h296.4a80 80 0 1 0 95.6-86.39zm-416-129.61h400v32h-400zm24-40h352a24.027 24.027 0 0 1 24 24h-400a24.027 24.027 0 0 1 24-24zm-24 216v-128h400v80a80.11 80.11 0 0 0 -79.6 72h-296.4a24.027 24.027 0 0 1 -24-24zm400 96a64 64 0 1 1 64-64 64.072 64.072 0 0 1 -64 64z" fill="#000000" data-original="#004fac" style="" class=""/><path d="m136 224h-88a8 8 0 0 0 -8 8v40a8 8 0 0 0 8 8h88a8 8 0 0 0 8-8v-40a8 8 0 0 0 -8-8zm-8 40h-72v-24h72z" fill="#000000" data-original="#004fac" style="" class=""/><path d="m136 288h-88a8 8 0 0 0 0 16h88a8 8 0 0 0 0-16z" fill="#000000" data-original="#004fac" style="" class=""/><path d="m88 312h-40a8 8 0 0 0 0 16h40a8 8 0 0 0 0-16z" fill="#000000" data-original="#004fac" style="" class=""/><path d="m120 312h-8a8 8 0 0 0 0 16h8a8 8 0 0 0 0-16z" fill="#000000" data-original="#004fac" style="" class=""/><path d="m448 360h-16v-16a8 8 0 0 0 -16 0v16h-16a8 8 0 0 0 0 16h16v16a8 8 0 0 0 16 0v-16h16a8 8 0 0 0 0-16z" fill="#000000" data-original="#004fac" style="" class=""/></g></g></svg>
