<svg id="Capa_1" enable-background="new 0 0 512 512" height="512" viewBox="0 0 512 512" width="512" xmlns="http://www.w3.org/2000/svg"><g><g><path clip-rule="evenodd" d="m104.332 408.539c39.232 27.425 45.95 22.184 47.084 53.434l40.989 21.263 40.536-21.263-.397-33.148c-.255-22.042 1.701-51.111-13.011-68.818l-35.178-42.385c-20.495-17.594-47.424 4.901-27.439 27.595 7.625 8.613 10.46 12.268 17.348 19.691 10.29 10.568-2.778 27.879-16.809 17.424l-38.75-34.565c-7.115-7.253-13.833-12.069-18.567-21.079l-26.362-50.148c-10.715-21.929-37.701-7.848-29.14 12.126l40.762 95.196c5.356 12.466 13.576 20.598 18.934 24.677z" fill="#ffe5c1" fill-rule="evenodd"/></g><g><path clip-rule="evenodd" d="m298.846 360.007c-14.712 17.707-12.756 46.776-13.011 68.818l-.397 33.148 40.536 21.263 40.989-21.263c1.134-31.25 7.852-26.009 47.055-53.434 5.386-4.08 13.606-12.211 18.935-24.677l40.791-95.196c8.561-19.974-18.454-34.055-29.14-12.126l-26.362 50.148c-4.734 9.01-11.452 13.826-18.567 21.079l-38.75 34.565c-14.032 10.455-27.099-6.856-16.838-17.424 6.888-7.423 9.751-11.078 17.348-19.691 20.013-22.694-6.917-45.19-27.411-27.595z" fill="#ffe5c1" fill-rule="evenodd"/></g><g><path clip-rule="evenodd" d="m141.097 495.859c0 4.76 3.883 8.641 8.617 8.641h85.38c4.734 0 8.617-3.882 8.617-8.641v-25.272c0-4.731-3.883-8.613-8.617-8.613h-2.154-81.525-1.701c-4.734 0-8.617 3.882-8.617 8.613z" fill="#fdb440" fill-rule="evenodd"/></g><g><path clip-rule="evenodd" d="m274.666 470.587v25.272c0 4.76 3.883 8.641 8.617 8.641h85.38c4.734 0 8.617-3.882 8.617-8.641v-25.272c0-4.731-3.883-8.613-8.617-8.613h-1.701-81.525-2.154c-4.733 0-8.617 3.881-8.617 8.613z" fill="#fdb440" fill-rule="evenodd"/></g><g><path clip-rule="evenodd" d="m159.664 320.087 35.15 42.356c14.712 17.736 12.756 46.776 13.011 68.847l.368 30.684h24.747l-.397-33.148c-.255-22.042 1.701-51.111-13.011-68.818l-35.178-42.385c-10.488-9.01-22.706-7.508-29.395-.822 1.587.878 3.146 1.954 4.705 3.286z" fill="#fed1a3" fill-rule="evenodd"/></g><g><path clip-rule="evenodd" d="m351.202 455.967-.142 6.006h15.902c1.134-31.052 7.767-26.065 46.403-52.981.227-.142.454-.312.652-.453 5.386-4.08 13.606-12.211 18.935-24.677l40.791-95.196c6.094-14.223-5.839-25.442-17.093-22.836 3.09 4.25 4.28 10.256 1.304 16.829l-42.265 93.694c-12.585 27.88-62.475 24.027-64.487 79.614z" fill="#fed1a3" fill-rule="evenodd"/></g><g><path clip-rule="evenodd" d="m216.131 470.587v25.272c0 4.76-3.883 8.641-8.617 8.641h27.581c4.734 0 8.617-3.882 8.617-8.641v-25.272c0-4.731-3.883-8.613-8.617-8.613h-2.154-24.747-.68c4.733 0 8.617 3.881 8.617 8.613z" fill="#fe9900" fill-rule="evenodd"/></g><g><path clip-rule="evenodd" d="m349.671 470.587v25.272c0 4.76-3.855 8.641-8.617 8.641h27.61c4.734 0 8.617-3.882 8.617-8.641v-25.272c0-4.731-3.883-8.613-8.617-8.613h-1.701-15.903-10.006c4.762 0 8.617 3.881 8.617 8.613z" fill="#fe9900" fill-rule="evenodd"/></g><g><path d="m504.5 111.499h-35.858c-4.142 0-7.5-3.358-7.5-7.5s3.358-7.5 7.5-7.5h35.858c4.142 0 7.5 3.358 7.5 7.5s-3.358 7.5-7.5 7.5z" fill="#6d80aa"/></g><g><path d="m453.793 53.702c-2.242 0-4.458-1-5.937-2.91-2.535-3.276-1.935-7.986 1.341-10.521l29.764-23.034c3.277-2.536 7.987-1.935 10.521 1.341 2.535 3.276 1.935 7.986-1.341 10.521l-29.764 23.034c-1.365 1.057-2.981 1.569-4.584 1.569z" fill="#6d80aa"/></g><g><path d="m483.546 192.302c-1.604 0-3.219-.512-4.585-1.569l-29.764-23.034c-3.276-2.535-3.876-7.246-1.341-10.521 2.535-3.276 7.246-3.877 10.521-1.341l29.764 23.034c3.276 2.535 3.876 7.246 1.341 10.521-1.477 1.91-3.694 2.91-5.936 2.91z" fill="#6d80aa"/></g><g><path d="m43.33 111.499h-35.83c-4.142 0-7.5-3.358-7.5-7.5s3.358-7.5 7.5-7.5h35.83c4.142 0 7.5 3.358 7.5 7.5s-3.358 7.5-7.5 7.5z" fill="#6d80aa"/></g><g><path d="m58.178 53.702c-1.604 0-3.219-.512-4.585-1.569l-29.763-23.034c-3.276-2.535-3.876-7.246-1.341-10.521 2.535-3.276 7.246-3.876 10.521-1.341l29.764 23.034c3.276 2.535 3.876 7.246 1.341 10.521-1.478 1.91-3.696 2.91-5.937 2.91z" fill="#6d80aa"/></g><g><path d="m28.425 192.302c-2.242 0-4.458-1-5.937-2.91-2.535-3.276-1.935-7.986 1.341-10.521l29.764-23.034c3.277-2.535 7.987-1.934 10.521 1.341 2.535 3.276 1.935 7.986-1.341 10.521l-29.763 23.034c-1.366 1.057-2.982 1.569-4.585 1.569z" fill="#6d80aa"/></g><g><path clip-rule="evenodd" d="m88.401 232.343h92.041 36.397c30.047 0 32.343-62.245-11.31-63.889l-82.829.68c-19.843 5.581-39.232 13.571-39.232 42.073v16.206c.001 2.72 2.24 4.93 4.933 4.93z" fill="#22a6fe" fill-rule="evenodd"/></g><g><path clip-rule="evenodd" d="m122.7 169.134 38.126 22.354c6.463 4.193 10.176 4.193 16.639 0l28.063-16.461c3.969-8.754 3.304-23.003-10.602-25.697 3.832.743-14.261-11.501-24.261-11.416-11.856.101-22.766 13.994-25.573 12.436-1.644 3.371-3.77 13.741-11.82 15.951-3.457.935-7.028 1.841-10.572 2.833z" fill="#f5a96c" fill-rule="evenodd"/></g><g><path clip-rule="evenodd" d="m331.416 232.343h92.013c2.721 0 4.961-2.21 4.961-4.93v-16.206c0-28.474-19.361-36.463-39.175-42.045l-82.914 5.865c-20.806 4.533-60.095 57.316-14.485 57.316z" fill="#22a6fe" fill-rule="evenodd"/></g><g><path clip-rule="evenodd" d="m334.392 191.488c6.463 4.193 10.176 4.193 16.639 0l38.183-22.326c-3.572-.992-7.143-1.927-10.63-2.862-8.05-2.21-10.176-12.579-11.849-15.951-17.717-8.868-32.769-7.706-49.805-1.02-4.989 6.573-8.277 15.781-10.63 25.697z" fill="#f5a96c" fill-rule="evenodd"/></g><g><path clip-rule="evenodd" d="m107.79 95.358c0 19.436 16.129 43.235 37.304 54.992 2.806 1.558 5.726 2.89 8.674 3.995 11.112 4.137 19.616 4.137 30.728 0 3.6-1.332 7.087-3.003 10.432-5.015 14.173-10.851 36.936-65.475 20.75-77.063-9.524-5.893-11.438-25.875-23.967-22.645-13.238 3.428-18.142 5.128-23.074 5.128-4.904 0-9.808-1.7-23.074-5.128-17.121-4.391-12.94 25.252-37.772 26.98v18.756z" fill="#ffbc85" fill-rule="evenodd"/></g><g><path clip-rule="evenodd" d="m146.058 60.339c13.266 3.428 18.17 5.128 23.074 5.128 4.932 0 9.836-1.7 23.074-5.128 12.529-3.23 13.947 6.035 23.471 11.928 4.195-3.853 8.844-7.026 13.805-9.463-5.556-36.407-32.939-54.851-60.35-55.304-30.671.482-61.342 23.572-61.342 69.102 24.832-1.728 21.147-20.654 38.268-16.263z" fill="#6d80aa" fill-rule="evenodd"/></g><g><path clip-rule="evenodd" d="m316.931 149.33c3.345 2.012 6.831 3.683 10.403 5.015 11.14 4.137 19.616 4.137 30.756 0 2.948-1.105 5.839-2.437 8.646-3.995 21.203-11.758 37.332-35.557 37.332-54.992v-18.756c-24.832-1.728-20.636-29.883-37.758-25.464-13.266 3.428-18.17 5.128-23.074 5.128-4.932 0-9.836-1.7-23.102-5.128-12.501-3.23-14.428 15.236-23.953 21.129v54.733s17.069 20.417 20.75 22.33z" fill="#ffbc85" fill-rule="evenodd"/></g><g><path clip-rule="evenodd" d="m342.726 65.467c4.904 0 9.808-1.7 23.074-5.128 17.121-4.42 13.436 14.534 38.268 16.263 0-45.53-30.671-68.62-61.342-69.102-27.411.453-54.822 18.897-60.35 55.304 4.932 2.437 9.609 5.61 13.805 9.463 9.524-5.893 10.942-15.158 23.443-11.928 13.266 3.428 18.17 5.128 23.102 5.128z" fill="#6d80aa" fill-rule="evenodd"/></g><g><path clip-rule="evenodd" d="m247.595 250.419c6.491 4.165 10.176 4.165 16.639 0l38.126-32.355c-3.543-.992-7.087-1.898-10.545-2.833-8.079-2.21-10.205-12.579-11.849-15.951-14.939-14.591-29.14-17.651-48.076 0-1.644 3.372-3.77 13.741-11.849 15.951-3.458.935-7.002 1.842-10.545 2.833z" fill="#fed1a3" fill-rule="evenodd"/></g><g><path clip-rule="evenodd" d="m150.707 15.433c26.787.425 53.547 18.104 59.925 52.868 1.446 1.388 3.061 2.748 5.046 3.966 4.195-3.853 8.844-7.026 13.805-9.463-5.556-36.407-32.939-54.851-60.35-55.304-11.282.17-22.592 3.428-32.343 9.718 4.562-1.105 9.24-1.728 13.917-1.785z" fill="#49679b" fill-rule="evenodd"/></g><g><path clip-rule="evenodd" d="m316.931 149.33c-.624 4.675-2.069 9.491-4.195 14.279 14.23 7.338 21.118 13.231 38.126 6.913 1.729-.623 2.154-.765 3.827-1.558 5.074-2.408 5.443 1.218 5.443 1.218 1.616 4.051 4.195 8.925 9.128 10.653l19.956-11.673c-3.572-.992-7.143-1.927-10.63-2.862-8.05-2.21-10.176-12.579-11.849-15.951-2.806 1.558-5.698 2.89-8.646 3.995-11.14 4.137-19.616 4.137-30.756 0-3.573-1.331-7.059-3.002-10.404-5.014z" fill="#ea9a58" fill-rule="evenodd"/></g><g><path clip-rule="evenodd" d="m388.619 71.87v21.702c0 19.407-16.129 43.206-37.304 54.964-2.806 1.558-5.726 2.918-8.674 4.023-4.28 1.587-8.192 2.55-11.991 2.918 9.553 2.947 17.433 2.578 27.439-1.133 2.948-1.105 5.839-2.437 8.646-3.995 21.203-11.758 37.332-35.557 37.332-54.992v-18.755c-7.085-.482-11.848-2.38-15.448-4.732z" fill="#f5a96c" fill-rule="evenodd"/></g><g><path clip-rule="evenodd" d="m328.61 9.342c28.743 1.02 57.118 21.872 59.896 62.444.057.028.085.057.113.085 3.6 2.352 8.362 4.25 15.449 4.731 0-45.53-30.671-68.62-61.342-69.102-4.762.057-9.496.68-14.116 1.842z" fill="#49679b" fill-rule="evenodd"/></g><g><path clip-rule="evenodd" d="m231.891 199.279c2.806 1.558 5.698 2.918 8.674 3.995 11.112 4.136 19.616 4.136 30.728 0 2.948-1.077 5.868-2.437 8.674-3.995 10.46-5.808 19.673-14.563 26.334-24.252 5.698-8.273 9.496-17.254 10.63-25.697.227-1.7.34-3.372.34-5.043v-18.756c-24.832-1.728-21.118-31.59-38.268-27.17-13.238 3.4-18.142 5.1-23.074 5.1s-9.836-1.7-23.074-5.1c-17.15-4.42-20.551 13.373-38.268 27.17v18.756c0 1.672.113 3.343.34 5.043 1.106 8.443 4.932 17.424 10.602 25.697 6.661 9.69 15.902 18.444 26.362 24.252z" fill="#ffe5c1" fill-rule="evenodd"/></g><g><path clip-rule="evenodd" d="m255.929 114.397c4.932 0 9.836-1.7 23.074-5.128 17.15-4.391 13.436 14.534 38.268 16.263 0-23.997-8.532-41.761-21.09-53.264-4.195-3.853-8.872-7.026-13.805-9.463-8.277-4.108-17.376-6.233-26.447-6.375-9.099.142-18.17 2.267-26.447 6.375-4.961 2.437-9.609 5.61-13.805 9.463-12.558 11.503-21.09 29.267-21.09 53.264 24.832-1.728 21.118-20.654 38.268-16.263 13.238 3.428 18.142 5.128 23.074 5.128z" fill="#6d80aa" fill-rule="evenodd"/></g><g><path clip-rule="evenodd" d="m277.132 70.482c9.099 8.33 16.072 19.946 19.247 34.82 1.191 5.61 1.843 7.338 1.843 12.693 3.94 3.542 9.298 6.856 19.049 7.536 0-3.797-.198-7.451-.624-10.965-2.183-18.529-9.893-32.638-20.466-42.3-4.195-3.853-8.872-7.026-13.805-9.463-8.277-4.108-17.376-6.233-26.447-6.375-1.446.028-2.891.085-4.337.227 4.025 1.048 7.965 2.493 11.735 4.363 4.933 2.466 9.61 5.611 13.805 9.464z" fill="#49679b" fill-rule="evenodd"/></g><g><path clip-rule="evenodd" d="m298.222 123.775v18.756c0 1.643-.113 3.315-.34 5.015-1.134 8.443-4.932 17.424-10.63 25.697-6.661 9.69-15.874 18.444-26.334 24.252-2.806 1.558-5.726 2.918-8.674 3.995-3.317 1.247-6.406 2.097-9.383 2.607 10.006 3.287 18.085 3.032 28.432-.822 2.948-1.077 5.868-2.437 8.674-3.995 10.46-5.808 19.673-14.563 26.334-24.252 5.698-8.273 9.496-17.254 10.63-25.697.227-1.7.34-3.372.34-5.043v-18.756c-9.751-.68-15.109-3.995-19.049-7.536z" fill="#fed1a3" fill-rule="evenodd"/></g><g><path clip-rule="evenodd" d="m175.368 172.166c5.443-2.012 11.764-7.395 14.343-.17l3.005 10.54 12.813-7.508c-1.446-2.125-2.806-4.306-3.997-6.516-3.458-6.346-5.783-12.919-6.605-19.181-3.345 2.012-6.832 3.683-10.432 5.015-11.112 4.137-19.616 4.137-30.728 0-2.948-1.105-5.868-2.437-8.674-3.995-1.077 2.21-2.381 7.508-5.471 11.474 8.052 5.637 25.995 13.939 35.746 10.341z" fill="#ea9a58" fill-rule="evenodd"/></g><g><path clip-rule="evenodd" d="m369.259 180.835c19.814 5.581 39.175 13.571 39.175 42.045v9.463h14.995c2.721 0 4.961-2.21 4.961-4.93v-16.206c0-28.474-19.361-36.463-39.175-42.045z" fill="#0182fc" fill-rule="evenodd"/></g><g><path clip-rule="evenodd" d="m175.198 281.272h161.462c2.721 0 4.932-2.21 4.932-4.93v-16.206c0-12.919-3.969-21.617-10.176-27.794-7.483-7.451-18.198-11.219-29.055-14.279l-38.126 22.354c-6.463 4.193-10.148 4.193-16.639 0l-38.098-22.354c-10.857 3.06-21.572 6.828-29.055 14.279-6.208 6.176-10.176 14.874-10.176 27.794v16.206c-.001 2.72 2.21 4.93 4.931 4.93z" fill="#fd4755" fill-rule="evenodd"/></g><g><path clip-rule="evenodd" d="m269.45 217.553c.765 2.04 5.953 10.681 13.861 11.701l19.049-11.191c-3.543-.992-7.087-1.898-10.545-2.833-8.079-2.21-10.205-12.579-11.849-15.951-1.134.623-2.268 1.218-3.43 1.785-1.729.822-3.487 1.558-5.244 2.21-10.346 3.853-18.425 4.108-28.432.822-.765-.255-1.531-.538-2.296-.822-.567-.198-1.106-.425-1.672-.652-2.381-.963-4.734-2.068-7.002-3.343-1.02 2.068-2.211 6.828-4.904 10.681-.624.907 27.553 11.559 38.608 6.828 3.148-1.359 2.694-2.351 3.856.765z" fill="#ffbc85" fill-rule="evenodd"/></g><g><path clip-rule="evenodd" d="m293.176 232.343c7.257 2.607 14.003 6.006 19.191 11.163 6.18 6.176 10.176 14.903 10.176 27.822v9.945h14.117c2.721 0 4.932-2.21 4.932-4.93v-16.206c0-12.919-3.969-21.617-10.176-27.794-7.483-7.451-18.198-11.219-29.055-14.279l-19.049 11.191c1.446.397 2.92.822 4.365 1.275 1.843.566 3.685 1.161 5.499 1.813z" fill="#e41e2b" fill-rule="evenodd"/></g></g></svg>