<?xml version="1.0" encoding="utf-8"?>
<!-- Generator: Adobe Illustrator 23.0.1, SVG Export Plug-In . SVG Version: 6.00 Build 0)  -->
<svg version="1.1" id="Layer_1" xmlns="http://www.w3.org/2000/svg" xmlns:xlink="http://www.w3.org/1999/xlink" x="0px" y="0px"
	 viewBox="0 0 512 298" style="enable-background:new 0 0 512 298;" xml:space="preserve">
<style type="text/css">
	.st0{fill:#FFFFFF;}
</style>
<g transform="matrix(1,0,0,1,5.684341886080802e-14,8.526512829121202e-14)">
	<path class="st0" d="M87.78,47.53L46.59,91.06v115.94l41.19,43.54h336.44l41.19-43.54V90.95l-40.61-43.54L87.78,47.53z
		 M255.94,136.01c21.49,0,39.7,15.85,42.65,37.13c2.96,21.29-10.24,41.5-30.92,47.36v9.51c0,6.48-5.26,11.74-11.74,11.74
		c-6.48,0-11.74-5.26-11.74-11.74v-9.51c-18.52-5.26-31.31-22.17-31.34-41.43c0-6.48,5.26-11.74,11.74-11.74
		c6.48,0,11.74,5.25,11.74,11.74c0,10.82,8.77,19.6,19.6,19.6c10.82,0,19.6-8.77,19.6-19.6s-8.77-19.6-19.6-19.6
		c-21.49,0-39.7-15.85-42.66-37.14c-2.96-21.29,10.24-41.5,30.92-47.36v-7.04c0-6.48,5.25-11.74,11.74-11.74
		c6.48,0,11.74,5.25,11.74,11.74v7.04c18.52,5.26,31.31,22.17,31.33,41.43c0,6.48-5.25,11.74-11.74,11.74s-11.74-5.25-11.74-11.74
		c0-10.82-8.77-19.6-19.6-19.6c-10.83,0-19.6,8.77-19.6,19.6S245.12,136.01,255.94,136.01z"/>
	<path class="st0" d="M476.68,0.35H35.21C15.79,0.41,0.06,16.14,0,35.56v226.96c0.06,19.42,15.79,35.15,35.21,35.21H476.8
		c19.42-0.06,35.15-15.79,35.21-35.21V35.56C511.89,16.11,496.12,0.4,476.68,0.35z M488.88,211.7c-0.02,3-1.15,5.89-3.17,8.1
		l-47.88,50.58c-2.23,2.35-5.33,3.66-8.57,3.64H82.73c-3.23,0-6.32-1.32-8.57-3.64L26.28,219.8c-2.07-2.18-3.2-5.09-3.17-8.1V86.37
		c0.02-3,1.15-5.89,3.17-8.1l47.88-50.58c2.23-2.34,5.33-3.66,8.57-3.64h347.12c3.26-0.04,6.38,1.33,8.57,3.75l47.29,50.58
		c2,2.18,3.13,5.02,3.17,7.98V211.7z"/>
</g>
</svg>
